<?xml version="1.0" encoding="UTF-8"?>
<svg fill="hsl(200, 100%, 45%)" xmlns="http://www.w3.org/2000/svg" viewBox="0 0 2672 1640" width="500px">
  <path d="m500.766,240.659h-70.621c-11.894,0-23.096,5.6-30.232,15.116l-11.901,15.868c-40.798-32.338-92.174-51.643-147.931-51.643C107.702,220,0,328.809,0,462.552c0,51.599,16.031,95.803,46.716,129.811-23.427,24.318-36.716,56.035-36.716,81.125,0,53.634,30,135.609,148.947,135.609,102.354,0,161.839-29.122,219.636-29.122,15.417,0,11.815,7.557,11.882,18.389-.218,99.86-45.088,107.163-191.504,107.163-26.676,0-82.108-4.517-102.012-8.266-3.223-.607-6.336,1.385-7.188,4.552l-19.559,71.662c-.935,3.474,1.189,7.035,4.704,7.795,32.904,7.114,92.964,8.73,124.055,8.73,248.974,0,274.542-98.876,274.542-210.025,0-39.219-4.446-93.365-80.027-93.365-63.893,0-132.379,36.122-216.852,36.122-68.622,0-88.622-18.731-88.622-50.731,0-13.644,6.611-26.436,16.252-36.346,37.702,19.012,83.966,28.942,135.83,28.942,66.225,0,123.323-16.186,165.117-46.804,49.045-35.932,74.965-89.61,74.965-155.24,0-49.592-14.819-95.747-40.203-134.206l9.079-12.105h47.794v-.016h3.931c2.761,0,5-2.239,5-5v-65.565c0-2.761-2.239-5-5-5Zm-260.684,352.14c-45.869,0-152.555-12.575-152.555-129.075,0-94.802,68.436-171.927,152.555-171.927s152.555,77.124,152.555,171.927c0,116.499-106.686,129.075-152.555,129.075Z"/>
  <path d="m1131,241h-78c-2.761,0-5,2.239-5,5v74c0,2.761,2.239,5,5,5h36v294.5c-25.357,51.942-93.811,70.5-145,70.5-19.593,0-149-6.19-149-126v-281c0-23.196-18.804-42-42-42h-78c-2.761,0-5,2.239-5,5v74c0,2.761,2.239,5,5,5h41v239c0,110.81,68.5,206,228,206,58.344,0,105.271-13.011,141.094-35.38-.002,23.822-.004,47.131-.004,51.922,0,89.458-46.983,116.23-194.068,116.23-27.542,0-77.915-2.772-100.322-6.013-6.568-.95-10.593-.759-12.75,8.045l-.01.039-.01.039-17.084,62.778c-1.738,7.34-.818,11.667,8.363,13.729,33.899,7.611,108.124,8.611,121.814,8.611,250.205,0,278.581-120.833,281.626-200h.351v-507c0-23.196-18.804-42-42-42Z"/>
  <path d="m671,675h-2s-39,0-39,0V43c0-23.196-18.804-42-42-42h-83c-2.761,0-5,2.239-5,5v74c0,2.761,2.239,5,5,5h41v590h-38.998s-2.002,0-2.002,0c-2.761,0-5,2.239-5,5v74c0,2.761,2.239,5,5,5h4s.003,0,.005,0h157.99s.003,0,.005,0h4c2.761,0,5-2.239,5-5v-74c0-2.761-2.239-5-5-5Z"/>
  <path d="m2647,250l-2.592-.831-.033.01c-31.479-12.314-68.521-19.18-110.875-19.18-71.873,0-121.098,25.184-153.5,60.352v-7.352c0-23.196-18.804-42-42-42h-83c-2.761,0-5,2.239-5,5v74c0,2.761,2.239,5,5,5h41v351h-27s-2,0-2,0c-2.761,0-5,2.239-5,5v74c0,2.761,2.239,5,5,5h4s.003,0,.005,0h145.99s.003,0,.005,0h4c2.761,0,5-2.239,5-5v-74c0-2.761-2.239-5-5-5h-2s-39,0-39,0v-271.582c22.852-59.075,86.108-84.697,153.5-84.697,8.649,0,39.652.049,71.5,10.28,7,2,10,3,14-4l30-65c3-6,2-9-2-11Z"/>
  <path d="m2238,676h-2s-26.25,0-26.25,0v-240h.25c0-114.81-73.5-206-228-206-52.274,0-92.516,12.374-123,32.91V42c0-23.196-18.804-42-42-42h-83c-2.761,0-5,2.239-5,5v74c0,2.761,2.239,5,5,5h41v592h-38.998s-2.002,0-2.002,0c-2.761,0-5,2.239-5,5v74c0,2.761,2.239,5,5,5h4s.003,0,.005,0h145.99s.003,0,.005,0h4c2.761,0,5-2.239,5-5v-74c0-2.761-2.239-5-5-5h-1.998s-27.002,0-27.002,0v-319.404c36.172-42.626,95.526-52.596,123-52.596,19.593,0,143,9.19,143,132h-.25v240h-38.75s-2,0-2,0c-2.761,0-5,2.239-5,5v74c0,2.761,2.239,5,5,5h4s.003,0,.005,0h145.99s.003,0,.005,0h4c2.761,0,5-2.239,5-5v-74c0-2.761-2.239-5-5-5Z"/>
  <path d="m1721.989,460c-.48-133.512-104.785-230-230.489-230-59.977,0-114.167,25.596-154.5,66.117v-14.117c0-23.196-18.804-42-42-42h-83c-2.761,0-5,2.239-5,5v74c0,2.761,2.239,5,5,5h41v576h-41c-2.761,0-5,2.239-5,5v74c0,2.761,2.239,5,5,5h83c23.196,0,42-18.804,42-42v-231.86c31.832,36.195,80.706,59.86,153,59.86,154.5,0,232-91.19,232-206v-104h-.011Zm-83.989,98c0,122.81-111,134-148,134-55,0-151-24.19-151-144v-90.892c0-90.09,72.438-153.879,152.5-153.879s146.5,66.713,146.5,163.382v91.389Z"/>
  <path d="m2573.607,1327.189c-.529-125.825-98.883-228.334-223.741-228.334-.185,0-.364.019-.546.032-.181-.013-.361-.032-.546-.032-125.196,0-223.747,103.063-223.747,229.354h.135v101.935h.005c.402,109.703,65.743,208.857,223.742,208.857.171,0,.341-.005.51-.015.169.01.338.015.51.015,158,0,223.34-99.154,223.742-208.857h.005v-102.954h-.069Zm-223.678,229.209c-.171,0-.341.006-.51.017-.169-.011-.338-.017-.51-.017-54.652,0-140.16-8.223-140.16-127.274v-101.935h-.124c.459-89.007,60.899-155.569,140.15-155.569.185,0,.364-.019.546-.031.181.012.361.031.546.031,79.555,0,140.16,67.069,140.16,156.589h.063v100.916c0,119.051-85.509,127.274-140.16,127.274Z"/>
  <g>
    <path d="m2078.541,1544.644h-36.552v-393.853c0-23.199-18.807-42.005-42.005-42.005h-85.462c-1.408,0-2.548,1.141-2.548,2.548v78.913c0,1.407,1.141,2.548,2.548,2.548h43.457v351.848h-38.36c-1.408,0-2.548,1.142-2.548,2.549v78.913c0,1.408,1.141,2.548,2.548,2.548h158.922c1.407,0,2.548-1.141,2.548-2.548v-78.913c0-1.407-1.141-2.548-2.548-2.548Z"/>
    <path d="m1938.43,1023.828c10.203,7.475,24.143,11.427,40.311,11.427s30.108-3.951,40.311-11.427c11.973-8.772,18.301-21.877,18.301-37.9,0-32.652-26.294-59.216-58.613-59.216s-58.613,26.564-58.613,59.216c0,16.023,6.328,29.127,18.301,37.9Z"/>
  </g>
  <path d="m758.316,1108.726h-93.193v-184.219c0-2.408-1.952-4.361-4.36-4.361h-75.436c-2.408,0-4.36,1.953-4.36,4.361v184.219h-55.043c-1.407,0-2.548,1.142-2.548,2.549v79.06c0,1.408,1.141,2.548,2.548,2.548h55.043s0,389.269,0,389.269c0,25.647,20.791,46.439,46.439,46.439h92.817c.103,0,.205-.008.306-.015.193.047.392.079.6.079h8.929c1.407,0,2.548-1.141,2.548-2.548v-79.06c0-1.407-1.141-2.548-2.548-2.548h-8.929c-.04,0-.077.01-.117.012-.256-.047-.52-.075-.79-.075h-50.739c-2.408,0-4.36-1.952-4.36-4.36v-347.191h93.193c1.407,0,2.548-1.14,2.548-2.548v-79.06c0-1.407-1.141-2.548-2.548-2.548Z"/>
  <path d="m406.883,1329.374c-63.015,0-110.268,20.431-193.58,20.431-67.679,0-77.114-18.57-77.114-50.13,0-25.317-6.985-118.967,183.678-118.967,58.911,0,107.84,22.836,125.835,26.912,6.475,1.466,10.596.76,12.754-8.048l.011-.039.01-.039,17.089-62.797c1.739-7.342.418-10.349-8.366-13.733-17.068-6.575-84.345-24.414-147.334-24.414-257.534,0-264.867,190.599-264.867,218.19,0,52.102,29.606,113.049,135.869,113.049,100.947,0,149.42-13.431,206.423-13.431,15.206,0,11.653,7.453,11.718,18.136-.215,98.487-53.003,120.98-183.774,120.98-26.309,0-121.753-4.455-141.384-8.152-3.178-.598-6.249,1.366-7.089,4.489l-19.29,70.677c-.922,3.426,1.172,6.938,4.64,7.688,32.452,7.016,132.461,8.61,163.124,8.61,224.042,0,260.574-107.71,260.574-217.331,0-38.68-4.385-92.082-78.927-92.082Z"/>
  <path d="m1812.643,952.468h43.16c1.407,0,2.548-1.141,2.548-2.548v-78.371c0-1.408-1.141-2.548-2.548-2.548h-84.894c-23.049,0-41.734,18.685-41.734,41.734l-.162,251.687c-40.106-39.235-93.426-63.889-152.314-63.889-125.764,0-230.124,96.532-230.603,230.109h-.005v104.049c0,114.864,77.536,206.097,232.109,206.097,70.761,0,119.092-22.663,150.975-57.553v5.626c0,23.049,18.685,41.734,41.734,41.734h84.894c1.407,0,2.548-1.141,2.548-2.548v-78.371c0-1.407-1.141-2.548-2.548-2.548h-43.16v-592.658Zm-234.443,608.283c-37.018,0-148.07-11.195-148.07-134.064v-91.432c0-96.714,66.47-163.459,146.569-163.459,78.502,0,149.669,61.303,152.476,148.596v102.671c-3.354,114.346-96.94,137.688-150.975,137.688Z"/>
  <path d="m1312.948,1189.644v-78.371c0-1.407-1.141-2.548-2.549-2.548h-84.894c-23.049,0-41.734,18.685-41.734,41.734l.01,360.86c-36.107,42.985-95.747,53.015-123.3,53.015-19.578,0-142.89-9.183-142.89-131.898h.25l-.91-239.967h43.465c1.407,0,2.548-1.141,2.548-2.548v-78.928c0-1.408-1.141-2.548-2.548-2.548h-85.573c-23.203,0-42.012,18.81-42.012,42.012l.005,291.085c3.81,110.399,77.392,196.735,227.665,196.735,54.463,0,95.854-13.443,126.751-35.557,6.455,14.898,21.284,25.323,38.554,25.323l82.161-.043c2.761,0,5-2.239,5-5v-74c0-2.761-2.239-5-5-5l-40.157.033-.552-351.841h43.16c1.408,0,2.549-1.141,2.549-2.548Z"/>
</svg>