<?xml version="1.0" encoding="UTF-8"?>
<svg fill="hsl(200, 100%, 45%)" xmlns="http://www.w3.org/2000/svg" viewBox="0 0 5191 992">
  <path
    d="m501.77,241.66h-70.62c-11.89,0-23.1,5.6-30.23,15.12l-11.9,15.87c-40.8-32.35-92.18-51.65-147.94-51.65C108.7,221,1,329.81,1,463.55c0,51.6,16.03,95.8,46.72,129.81-23.43,24.32-36.72,56.04-36.72,81.13,0,53.63,30,135.61,148.95,135.61,102.35,0,161.84-29.12,219.64-29.12,15.42,0,11.82,7.56,11.88,18.39-.22,99.86-45.09,107.16-191.5,107.16-26.68,0-82.11-4.52-102.01-8.27-3.22-.61-6.34,1.39-7.19,4.55l-19.57,71.66c-.94,3.47,1.19,7.03,4.7,7.79,32.9,7.11,92.96,8.73,124.05,8.73,248.97,0,274.54-98.88,274.54-210.02,0-39.22-4.45-93.37-80.03-93.37-63.89,0-132.38,36.12-216.85,36.12-68.61.01-88.61-18.72-88.61-50.72,0-13.64,6.61-26.44,16.25-36.35,37.7,19.01,83.97,28.94,135.83,28.94,66.22,0,123.32-16.19,165.12-46.8,49.04-35.93,74.96-89.61,74.96-155.24,0-49.59-14.82-95.75-40.2-134.21l9.08-12.11,51.72-.02c2.76,0,5-2.24,5-5v-65.57c.01-2.74-2.23-4.98-4.99-4.98Zm-260.69,352.14c-45.87,0-152.56-12.58-152.56-129.07,0-94.8,68.44-171.93,152.56-171.93s152.56,77.12,152.56,171.93c0,116.49-106.69,129.07-152.56,129.07Z" />
  <path
    d="m1132,242h-78c-2.76,0-5,2.24-5,5v74c0,2.76,2.24,5,5,5h36v294.5c-25.36,51.94-93.81,70.5-145,70.5-19.59,0-149-6.19-149-126v-281c0-23.2-18.8-42-42-42h-78c-2.76,0-5,2.24-5,5v74c0,2.76,2.24,5,5,5h41v239c0,110.81,68.5,206,228,206,58.34,0,105.27-13.01,141.09-35.38v51.92c0,89.46-46.98,116.23-194.07,116.23-27.54,0-77.92-2.77-100.32-6.01-6.57-.95-10.59-.76-12.75,8.05l-.01.04-.01.04-17.08,62.78c-1.74,7.34-.82,11.67,8.36,13.73,33.9,7.6,108.12,8.6,121.81,8.6,250.21,0,281.98-121,281.98-200v-507c0-23.2-18.8-42-42-42Z" />
  <path
    d="m672,676h-41V44c0-23.2-18.8-42-42-42h-83c-2.76,0-5,2.24-5,5v74c0,2.76,2.24,5,5,5h41v590h-41c-2.76,0-5,2.24-5,5v74c0,2.76,2.24,5,5,5h166c2.76,0,5-2.24,5-5v-74c0-2.76-2.24-5-5-5Z" />
  <path
    d="m2648,251l-2.59-.83-.03.01c-31.48-12.31-68.53-19.18-110.88-19.18-71.87,0-121.1,25.18-153.5,60.35v-7.35c0-23.2-18.8-42-42-42h-83c-2.76,0-5,2.24-5,5v74c0,2.76,2.24,5,5,5h41v351h-29c-2.76,0-5,2.24-5,5v74c0,2.76,2.24,5,5,5h154c2.76,0,5-2.24,5-5v-74c0-2.76-2.24-5-5-5h-41v-271.58c22.85-59.07,86.11-84.7,153.5-84.7,8.65,0,39.65.05,71.5,10.28,7,2,10,3,14-4l30-65c3-6,2-9-2-11Z" />
  <path
    d="m2239,677h-28.25s.17-240,.25-240c0-114.81-73.5-206-228-206-52.27,0-92.52,12.37-123,32.91V43c0-23.2-18.8-42-42-42h-83c-2.76,0-5,2.24-5,5v74c0,2.76,2.24,5,5,5h41v592h-41c-2.76,0-5,2.24-5,5v74c0,2.76,2.24,5,5,5h154c2.76,0,5-2.24,5-5v-74c0-2.76-2.24-5-5-5h-29v-319.4c36.17-42.63,95.53-52.6,123-52.6,19.59,0,143,9.19,143,132l-.25,240h-40.75c-2.76,0-5,2.24-5,5v74c0,2.76,2.24,5,5,5h154c2.76,0,5-2.24,5-5v-74c0-2.76-2.24-5-5-5Z" />
  <path
    d="m1722.99,461c-.48-133.51-104.79-230-230.49-230-59.98,0-114.17,25.6-154.5,66.12v-14.12c0-23.2-18.8-42-42-42h-83c-2.76,0-5,2.24-5,5v74c0,2.76,2.24,5,5,5h41v576h-41c-2.76,0-5,2.24-5,5v74c0,2.76,2.24,5,5,5h83c23.2,0,42-18.8,42-42v-231.86c31.83,36.2,80.71,59.86,153,59.86,154.5,0,232-91.19,232-206v-104h-.01Zm-83.99,98c0,122.81-111,134-148,134-55,0-151-24.19-151-144v-90.89c0-90.09,72.44-153.88,152.5-153.88s146.5,66.71,146.5,163.38v91.39Z" />
  <path
    d="m5189.61,459.19c-.53-125.82-98.88-228.33-223.74-228.33-.18,0-.36.02-.55.03-.18-.01-.36-.03-.55-.03-125.2,0-223.75,103.06-223.75,229.35h.13v101.93h0c.4,109.7,65.74,208.86,223.74,208.86.17,0,.34-.01.51-.01.17.01.34.01.51.01,158,0,223.34-99.15,223.74-208.86h0v-102.95h-.04Zm-223.68,229.21c-.17,0-.34.01-.51.02-.17-.01-.34-.02-.51-.02-54.65,0-140.16-8.22-140.16-127.27v-101.94h-.12c.46-89.01,60.9-155.57,140.15-155.57.18,0,.36-.02.55-.03.18.01.36.03.55.03,79.55,0,140.16,67.07,140.16,156.59h.06v100.92c-.01,119.04-85.52,127.27-140.17,127.27Z" />
  <path
    d="m4724.54,676.64h-36.55v-393.85c0-23.2-18.81-42-42-42h-85.46c-1.41,0-2.55,1.14-2.55,2.55v78.91c0,1.41,1.14,2.55,2.55,2.55h43.46v351.85h-38.36c-1.41,0-2.55,1.14-2.55,2.55v78.91c0,1.41,1.14,2.55,2.55,2.55h158.92c1.41,0,2.55-1.14,2.55-2.55v-78.91c-.01-1.41-1.15-2.56-2.56-2.56Z" />
  <path
    d="m4584.43,155.83c10.2,7.48,24.14,11.43,40.31,11.43s30.11-3.95,40.31-11.43c11.97-8.77,18.3-21.88,18.3-37.9,0-32.65-26.29-59.22-58.61-59.22s-58.61,26.56-58.61,59.22c0,16.02,6.33,29.13,18.3,37.9Z" />
  <path
    d="m3505.32,240.73h-93.19V56.51c0-2.41-1.95-4.36-4.36-4.36h-75.44c-2.41,0-4.36,1.95-4.36,4.36v184.22h-55.04c-1.41,0-2.55,1.14-2.55,2.55v79.06c0,1.41,1.14,2.55,2.55,2.55h55.04v389.27c0,25.65,20.79,46.44,46.44,46.44l102.66.06c1.41,0,2.55-1.14,2.55-2.55v-79.06c0-1.41-1.14-2.55-2.55-2.55l-60.58-.07c-2.41,0-4.36-1.95-4.36-4.36v-347.19h93.19c1.41,0,2.55-1.14,2.55-2.55v-79.06c-.01-1.4-1.15-2.54-2.55-2.54Z" />
  <path
    d="m3173.88,461.37c-63.02,0-110.27,20.43-193.58,20.43-67.68,0-77.11-18.57-77.11-50.13,0-25.32-6.99-118.97,183.68-118.97,58.91,0,107.84,22.84,125.84,26.91,6.47,1.47,10.6.76,12.75-8.05l.01-.04.01-.04,17.09-62.8c1.74-7.34.42-10.35-8.37-13.73-17.07-6.58-84.34-24.41-147.33-24.41-257.53,0-264.87,190.6-264.87,218.19,0,52.1,29.61,113.05,135.87,113.05,100.95,0,149.42-13.43,206.42-13.43,15.21,0,11.65,7.45,11.72,18.14-.22,98.49-53,120.98-183.77,120.98-26.31,0-121.75-4.45-141.38-8.15-3.18-.6-6.25,1.37-7.09,4.49l-19.29,70.68c-.92,3.43,1.17,6.94,4.64,7.69,32.45,7.02,132.46,8.61,163.12,8.61,224.04,0,260.57-107.71,260.57-217.33,0-38.68-4.379-92.09-78.929-92.09Z" />
  <path
    d="m4484.64,84.47h43.16c1.41,0,2.55-1.14,2.55-2.55V3.55c0-1.41-1.14-2.55-2.55-2.55h-84.89c-23.05,0-41.73,18.68-41.73,41.73l-.16,251.69c-40.11-39.23-93.43-63.89-152.31-63.89-125.76,0-230.12,96.53-230.6,230.11h-.01v104.05c0,114.86,77.54,206.1,232.11,206.1,70.76,0,119.09-22.66,150.98-57.55v5.63c0,23.05,18.68,41.73,41.73,41.73h84.89c1.41,0,2.55-1.14,2.55-2.55v-78.37c0-1.41-1.14-2.55-2.55-2.55h-43.16V84.47h-.01Zm-234.44,608.28c-37.02,0-148.07-11.2-148.07-134.06v-91.43c0-96.71,66.47-163.46,146.57-163.46,78.5,0,149.67,61.3,152.48,148.6v102.67c-3.36,114.34-96.95,137.68-150.98,137.68Z" />
  <path
    d="m4009.95,321.64v-78.37c0-1.41-1.14-2.55-2.55-2.55h-84.89c-23.05,0-41.73,18.69-41.73,41.73l.01,360.86c-36.11,42.98-95.75,53.01-123.3,53.01-19.58,0-142.89-9.18-142.89-131.9h.25l-.91-239.97h43.47c1.41,0,2.55-1.14,2.55-2.55v-78.93c0-1.41-1.14-2.55-2.55-2.55h-85.57c-23.2,0-42.01,18.81-42.01,42.01l.01,291.09c3.81,110.4,77.39,196.73,227.66,196.73,54.46,0,95.85-13.44,126.75-35.56,6.46,14.9,21.28,25.32,38.55,25.32l82.16-.04c2.76,0,5-2.24,5-5v-74c0-2.76-2.24-5-5-5l-40.16.03-.55-351.84h43.16c1.4.03,2.54-1.11,2.54-2.52Z" />
</svg>